# MagicaVoxel @ Ephtracy

# group
g roads

# material
mtllib roads.mtl
usemtl palette

# normals
vn -1 0 0
vn 1 0 0
vn 0 0 1
vn 0 0 -1
vn 0 -1 0
vn 0 1 0

# texcoords
vt 0.966797 0.5
vt 0.982422 0.5
vt 0.990234 0.5

# verts
v -30 0 30
v -30 0 -30
v -30 1 30
v -30 1 -30
v -30 2 30
v -30 2 -30
v 10 1 30
v 10 1 -30
v 10 2 30
v 10 2 -30
v -11 1 30
v -11 1 -30
v -11 2 30
v -11 2 -30
v 29 1 30
v 29 1 -29
v 29 2 30
v 29 2 -29
v 30 0 30
v 30 0 -30
v 30 1 30
v 30 1 -29
v 30 1 -30
v 30 2 -29
v 30 2 -30
v -30 0 30
v -30 1 30
v -30 2 30
v -11 1 30
v -11 2 30
v 10 1 30
v 10 2 30
v 29 1 30
v 29 2 30
v 30 0 30
v 30 1 30
v 29 1 -29
v 29 2 -29
v 30 1 -29
v 30 2 -29
v -30 0 -30
v -30 1 -30
v -30 2 -30
v -11 1 -30
v -11 2 -30
v -1 0 -30
v -1 1 -30
v 0 0 -30
v 0 1 -30
v 10 1 -30
v 10 2 -30
v 30 0 -30
v 30 1 -30
v 30 2 -30
v -30 0 30
v 30 0 30
v -1 0 28
v 0 0 28
v -1 0 24
v 0 0 24
v -1 0 22
v 0 0 22
v -1 0 18
v 0 0 18
v -1 0 16
v 0 0 16
v -1 0 12
v 0 0 12
v -1 0 10
v 0 0 10
v -1 0 6
v 0 0 6
v -1 0 4
v 0 0 4
v -1 0 -0
v 0 0 -0
v -1 0 -2
v 0 0 -2
v -1 0 -6
v 0 0 -6
v -1 0 -8
v 0 0 -8
v -1 0 -12
v 0 0 -12
v -1 0 -14
v 0 0 -14
v -1 0 -18
v 0 0 -18
v -1 0 -20
v 0 0 -20
v -1 0 -24
v 0 0 -24
v -1 0 -26
v 0 0 -26
v -30 0 -30
v -1 0 -30
v 0 0 -30
v 30 0 -30
v -11 1 30
v 10 1 30
v 29 1 30
v 30 1 30
v -1 1 28
v 0 1 28
v -1 1 24
v 0 1 24
v -1 1 22
v 0 1 22
v -1 1 18
v 0 1 18
v -1 1 16
v 0 1 16
v -1 1 12
v 0 1 12
v -1 1 10
v 0 1 10
v -1 1 6
v 0 1 6
v -1 1 4
v 0 1 4
v -1 1 -0
v 0 1 -0
v -1 1 -2
v 0 1 -2
v -1 1 -6
v 0 1 -6
v -1 1 -8
v 0 1 -8
v -1 1 -12
v 0 1 -12
v -1 1 -14
v 0 1 -14
v -1 1 -18
v 0 1 -18
v -1 1 -20
v 0 1 -20
v -1 1 -24
v 0 1 -24
v -1 1 -26
v 0 1 -26
v 29 1 -29
v 30 1 -29
v -11 1 -30
v -1 1 -30
v 0 1 -30
v 10 1 -30
v -30 2 30
v -11 2 30
v 10 2 30
v 29 2 30
v 29 2 -29
v 30 2 -29
v -30 2 -30
v -11 2 -30
v 10 2 -30
v 30 2 -30

# faces
f 3/3/1 2/3/1 1/3/1
f 4/3/1 2/3/1 3/3/1
f 5/2/1 4/2/1 3/2/1
f 6/2/1 4/2/1 5/2/1
f 9/2/1 8/2/1 7/2/1
f 10/2/1 8/2/1 9/2/1
f 11/2/2 12/2/2 13/2/2
f 13/2/2 12/2/2 14/2/2
f 15/2/2 16/2/2 17/2/2
f 17/2/2 16/2/2 18/2/2
f 19/3/2 20/3/2 21/3/2
f 21/3/2 20/3/2 22/3/2
f 22/3/2 20/3/2 23/3/2
f 22/2/2 23/2/2 24/2/2
f 24/2/2 23/2/2 25/2/2
f 29/3/3 27/3/3 26/3/3
f 29/2/3 28/2/3 27/2/3
f 30/2/3 28/2/3 29/2/3
f 31/3/3 29/3/3 26/3/3
f 33/3/3 31/3/3 26/3/3
f 33/2/3 32/2/3 31/2/3
f 34/2/3 32/2/3 33/2/3
f 35/3/3 33/3/3 26/3/3
f 36/3/3 33/3/3 35/3/3
f 39/2/3 38/2/3 37/2/3
f 40/2/3 38/2/3 39/2/3
f 41/3/4 42/3/4 44/3/4
f 42/2/4 43/2/4 44/2/4
f 44/2/4 43/2/4 45/2/4
f 41/3/4 44/3/4 46/3/4
f 46/3/4 44/3/4 47/3/4
f 46/1/4 47/1/4 48/1/4
f 48/1/4 47/1/4 49/1/4
f 48/3/4 49/3/4 50/3/4
f 48/3/4 50/3/4 52/3/4
f 50/2/4 51/2/4 53/2/4
f 52/3/4 50/3/4 53/3/4
f 53/2/4 51/2/4 54/2/4
f 57/3/5 56/3/5 55/3/5
f 58/3/5 56/3/5 57/3/5
f 59/3/5 57/3/5 55/3/5
f 59/1/5 58/1/5 57/1/5
f 60/3/5 56/3/5 58/3/5
f 60/1/5 58/1/5 59/1/5
f 61/3/5 59/3/5 55/3/5
f 61/3/5 60/3/5 59/3/5
f 62/3/5 56/3/5 60/3/5
f 62/3/5 60/3/5 61/3/5
f 63/3/5 61/3/5 55/3/5
f 63/1/5 62/1/5 61/1/5
f 64/3/5 56/3/5 62/3/5
f 64/1/5 62/1/5 63/1/5
f 65/3/5 63/3/5 55/3/5
f 65/3/5 64/3/5 63/3/5
f 66/3/5 56/3/5 64/3/5
f 66/3/5 64/3/5 65/3/5
f 67/3/5 65/3/5 55/3/5
f 67/1/5 66/1/5 65/1/5
f 68/3/5 56/3/5 66/3/5
f 68/1/5 66/1/5 67/1/5
f 69/3/5 67/3/5 55/3/5
f 69/3/5 68/3/5 67/3/5
f 70/3/5 56/3/5 68/3/5
f 70/3/5 68/3/5 69/3/5
f 71/3/5 69/3/5 55/3/5
f 71/1/5 70/1/5 69/1/5
f 72/3/5 56/3/5 70/3/5
f 72/1/5 70/1/5 71/1/5
f 73/3/5 71/3/5 55/3/5
f 73/3/5 72/3/5 71/3/5
f 74/3/5 56/3/5 72/3/5
f 74/3/5 72/3/5 73/3/5
f 75/3/5 73/3/5 55/3/5
f 75/1/5 74/1/5 73/1/5
f 76/3/5 56/3/5 74/3/5
f 76/1/5 74/1/5 75/1/5
f 77/3/5 75/3/5 55/3/5
f 77/3/5 76/3/5 75/3/5
f 78/3/5 56/3/5 76/3/5
f 78/3/5 76/3/5 77/3/5
f 79/3/5 77/3/5 55/3/5
f 79/1/5 78/1/5 77/1/5
f 80/3/5 56/3/5 78/3/5
f 80/1/5 78/1/5 79/1/5
f 81/3/5 79/3/5 55/3/5
f 81/3/5 80/3/5 79/3/5
f 82/3/5 56/3/5 80/3/5
f 82/3/5 80/3/5 81/3/5
f 83/3/5 81/3/5 55/3/5
f 83/1/5 82/1/5 81/1/5
f 84/3/5 56/3/5 82/3/5
f 84/1/5 82/1/5 83/1/5
f 85/3/5 83/3/5 55/3/5
f 85/3/5 84/3/5 83/3/5
f 86/3/5 56/3/5 84/3/5
f 86/3/5 84/3/5 85/3/5
f 87/3/5 85/3/5 55/3/5
f 87/1/5 86/1/5 85/1/5
f 88/3/5 56/3/5 86/3/5
f 88/1/5 86/1/5 87/1/5
f 89/3/5 87/3/5 55/3/5
f 89/3/5 88/3/5 87/3/5
f 90/3/5 56/3/5 88/3/5
f 90/3/5 88/3/5 89/3/5
f 91/3/5 89/3/5 55/3/5
f 91/1/5 90/1/5 89/1/5
f 92/3/5 56/3/5 90/3/5
f 92/1/5 90/1/5 91/1/5
f 93/3/5 91/3/5 55/3/5
f 93/3/5 92/3/5 91/3/5
f 94/3/5 56/3/5 92/3/5
f 94/3/5 92/3/5 93/3/5
f 95/3/5 93/3/5 55/3/5
f 96/1/5 94/1/5 93/1/5
f 96/3/5 93/3/5 95/3/5
f 97/3/5 56/3/5 94/3/5
f 97/1/5 94/1/5 96/1/5
f 98/3/5 56/3/5 97/3/5
f 99/3/6 100/3/6 103/3/6
f 103/3/6 100/3/6 104/3/6
f 99/3/6 103/3/6 105/3/6
f 103/1/6 104/1/6 105/1/6
f 104/3/6 100/3/6 106/3/6
f 105/1/6 104/1/6 106/1/6
f 99/3/6 105/3/6 107/3/6
f 105/3/6 106/3/6 107/3/6
f 106/3/6 100/3/6 108/3/6
f 107/3/6 106/3/6 108/3/6
f 99/3/6 107/3/6 109/3/6
f 107/1/6 108/1/6 109/1/6
f 108/3/6 100/3/6 110/3/6
f 109/1/6 108/1/6 110/1/6
f 99/3/6 109/3/6 111/3/6
f 109/3/6 110/3/6 111/3/6
f 110/3/6 100/3/6 112/3/6
f 111/3/6 110/3/6 112/3/6
f 99/3/6 111/3/6 113/3/6
f 111/1/6 112/1/6 113/1/6
f 112/3/6 100/3/6 114/3/6
f 113/1/6 112/1/6 114/1/6
f 99/3/6 113/3/6 115/3/6
f 113/3/6 114/3/6 115/3/6
f 114/3/6 100/3/6 116/3/6
f 115/3/6 114/3/6 116/3/6
f 99/3/6 115/3/6 117/3/6
f 115/1/6 116/1/6 117/1/6
f 116/3/6 100/3/6 118/3/6
f 117/1/6 116/1/6 118/1/6
f 99/3/6 117/3/6 119/3/6
f 117/3/6 118/3/6 119/3/6
f 118/3/6 100/3/6 120/3/6
f 119/3/6 118/3/6 120/3/6
f 99/3/6 119/3/6 121/3/6
f 119/1/6 120/1/6 121/1/6
f 120/3/6 100/3/6 122/3/6
f 121/1/6 120/1/6 122/1/6
f 99/3/6 121/3/6 123/3/6
f 121/3/6 122/3/6 123/3/6
f 122/3/6 100/3/6 124/3/6
f 123/3/6 122/3/6 124/3/6
f 99/3/6 123/3/6 125/3/6
f 123/1/6 124/1/6 125/1/6
f 124/3/6 100/3/6 126/3/6
f 125/1/6 124/1/6 126/1/6
f 99/3/6 125/3/6 127/3/6
f 125/3/6 126/3/6 127/3/6
f 126/3/6 100/3/6 128/3/6
f 127/3/6 126/3/6 128/3/6
f 99/3/6 127/3/6 129/3/6
f 127/1/6 128/1/6 129/1/6
f 128/3/6 100/3/6 130/3/6
f 129/1/6 128/1/6 130/1/6
f 99/3/6 129/3/6 131/3/6
f 129/3/6 130/3/6 131/3/6
f 130/3/6 100/3/6 132/3/6
f 131/3/6 130/3/6 132/3/6
f 99/3/6 131/3/6 133/3/6
f 131/1/6 132/1/6 133/1/6
f 132/3/6 100/3/6 134/3/6
f 133/1/6 132/1/6 134/1/6
f 99/3/6 133/3/6 135/3/6
f 133/3/6 134/3/6 135/3/6
f 134/3/6 100/3/6 136/3/6
f 135/3/6 134/3/6 136/3/6
f 99/3/6 135/3/6 137/3/6
f 135/1/6 136/1/6 137/1/6
f 136/3/6 100/3/6 138/3/6
f 137/1/6 136/1/6 138/1/6
f 99/3/6 137/3/6 139/3/6
f 137/3/6 138/3/6 139/3/6
f 138/3/6 100/3/6 140/3/6
f 139/3/6 138/3/6 140/3/6
f 101/3/6 102/3/6 141/3/6
f 141/3/6 102/3/6 142/3/6
f 99/3/6 139/3/6 143/3/6
f 139/1/6 140/1/6 144/1/6
f 143/3/6 139/3/6 144/3/6
f 140/3/6 100/3/6 145/3/6
f 144/1/6 140/1/6 145/1/6
f 145/3/6 100/3/6 146/3/6
f 149/2/6 150/2/6 151/2/6
f 147/2/6 148/2/6 153/2/6
f 153/2/6 148/2/6 154/2/6
f 151/2/6 152/2/6 155/2/6
f 149/2/6 151/2/6 155/2/6
f 155/2/6 152/2/6 156/2/6
